<mxfile host="65bd71144e">
    <diagram name="Page-1" id="kiWLOuEyL9WehnxS1dk0">
        <mxGraphModel dx="106" dy="70" grid="1" gridSize="5" guides="1" tooltips="1" connect="1" arrows="1" fold="1" page="1" pageScale="1" pageWidth="1100" pageHeight="850" background="none" math="1" shadow="0">
            <root>
                <mxCell id="0"/>
                <mxCell id="1" parent="0"/>
                <mxCell id="1VqV4PHdZKzAxzpNPlv1-47" value="" style="endArrow=classic;html=1;rounded=0;fillColor=#f8cecc;strokeColor=#b85450;" parent="1" edge="1">
                    <mxGeometry width="50" height="50" relative="1" as="geometry">
                        <mxPoint x="490.5" y="364" as="sourcePoint"/>
                        <mxPoint x="523.5" y="292" as="targetPoint"/>
                    </mxGeometry>
                </mxCell>
                <mxCell id="1VqV4PHdZKzAxzpNPlv1-48" value="$$F_1 [N]$$" style="edgeLabel;html=1;align=center;verticalAlign=middle;resizable=0;points=[];rotation=0;labelBackgroundColor=none;fontColor=#000000;" parent="1VqV4PHdZKzAxzpNPlv1-47" vertex="1" connectable="0">
                    <mxGeometry x="0.1587" y="-3" relative="1" as="geometry">
                        <mxPoint x="12" y="7" as="offset"/>
                    </mxGeometry>
                </mxCell>
                <mxCell id="1VqV4PHdZKzAxzpNPlv1-49" value="" style="endArrow=classic;html=1;rounded=0;fillColor=#dae8fc;strokeColor=#6c8ebf;strokeWidth=2;dashed=1;dashPattern=1 1;" parent="1" edge="1">
                    <mxGeometry width="50" height="50" relative="1" as="geometry">
                        <mxPoint x="720" y="425" as="sourcePoint"/>
                        <mxPoint x="380" y="425" as="targetPoint"/>
                    </mxGeometry>
                </mxCell>
                <mxCell id="1VqV4PHdZKzAxzpNPlv1-50" value="$$x [m]$$" style="edgeLabel;html=1;align=center;verticalAlign=middle;resizable=0;points=[];labelBackgroundColor=none;fontColor=#000000;" parent="1VqV4PHdZKzAxzpNPlv1-49" vertex="1" connectable="0">
                    <mxGeometry x="0.8846" y="-4" relative="1" as="geometry">
                        <mxPoint x="11" y="-9" as="offset"/>
                    </mxGeometry>
                </mxCell>
                <mxCell id="1VqV4PHdZKzAxzpNPlv1-51" value="" style="endArrow=classic;html=1;rounded=0;fillColor=#dae8fc;strokeColor=#6c8ebf;strokeWidth=2;dashed=1;dashPattern=1 1;" parent="1" edge="1">
                    <mxGeometry width="50" height="50" relative="1" as="geometry">
                        <mxPoint x="550" y="575" as="sourcePoint"/>
                        <mxPoint x="550" y="275" as="targetPoint"/>
                    </mxGeometry>
                </mxCell>
                <mxCell id="1VqV4PHdZKzAxzpNPlv1-52" value="$$y [m]$$" style="edgeLabel;html=1;align=center;verticalAlign=middle;resizable=0;points=[];labelBackgroundColor=none;fontColor=#000000;" parent="1VqV4PHdZKzAxzpNPlv1-51" vertex="1" connectable="0">
                    <mxGeometry x="0.7316" y="1" relative="1" as="geometry">
                        <mxPoint x="21" y="-15" as="offset"/>
                    </mxGeometry>
                </mxCell>
                <mxCell id="1VqV4PHdZKzAxzpNPlv1-56" value="" style="endArrow=none;dashed=1;html=1;dashPattern=1 3;strokeWidth=2;rounded=0;fillColor=#f8cecc;strokeColor=#b85450;" parent="1" edge="1">
                    <mxGeometry width="50" height="50" relative="1" as="geometry">
                        <mxPoint x="490.5" y="550" as="sourcePoint"/>
                        <mxPoint x="605.5" y="315" as="targetPoint"/>
                    </mxGeometry>
                </mxCell>
                <mxCell id="1VqV4PHdZKzAxzpNPlv1-57" value="$$\psi[rads]&lt;br&gt;$$" style="edgeLabel;html=1;align=center;verticalAlign=middle;resizable=0;points=[];labelBackgroundColor=none;rotation=0;fontColor=#000000;" parent="1VqV4PHdZKzAxzpNPlv1-56" vertex="1" connectable="0">
                    <mxGeometry x="-0.7844" y="-3" relative="1" as="geometry">
                        <mxPoint x="20" y="8" as="offset"/>
                    </mxGeometry>
                </mxCell>
                <mxCell id="1VqV4PHdZKzAxzpNPlv1-58" value="" style="rounded=0;whiteSpace=wrap;html=1;strokeColor=none;fillStyle=auto;fillColor=#000000;rotation=25;" parent="1" vertex="1">
                    <mxGeometry x="518" y="418" width="60" height="20" as="geometry"/>
                </mxCell>
                <mxCell id="1VqV4PHdZKzAxzpNPlv1-59" value="" style="rounded=0;whiteSpace=wrap;html=1;strokeColor=none;fillColor=#000000;rotation=25;" parent="1" vertex="1">
                    <mxGeometry x="468" y="414" width="170" height="10" as="geometry"/>
                </mxCell>
                <mxCell id="1VqV4PHdZKzAxzpNPlv1-61" value="" style="rounded=0;whiteSpace=wrap;html=1;strokeColor=none;fillColor=#000000;rotation=25;" parent="1" vertex="1">
                    <mxGeometry x="481" y="361" width="10" height="24.69" as="geometry"/>
                </mxCell>
                <mxCell id="1VqV4PHdZKzAxzpNPlv1-62" value="" style="triangle;whiteSpace=wrap;html=1;rotation=-65;strokeColor=none;fillColor=#000000;" parent="1" vertex="1">
                    <mxGeometry x="515" y="345" width="5" height="55" as="geometry"/>
                </mxCell>
                <mxCell id="1VqV4PHdZKzAxzpNPlv1-63" value="" style="triangle;whiteSpace=wrap;html=1;rotation=-65;strokeColor=none;fillColor=#000000;" parent="1" vertex="1">
                    <mxGeometry x="466" y="322" width="5" height="55" as="geometry"/>
                </mxCell>
                <mxCell id="1VqV4PHdZKzAxzpNPlv1-64" value="" style="triangle;whiteSpace=wrap;html=1;rotation=-65;strokeColor=none;fillColor=#000000;" parent="1" vertex="1">
                    <mxGeometry x="661" y="412" width="5" height="55" as="geometry"/>
                </mxCell>
                <mxCell id="1VqV4PHdZKzAxzpNPlv1-65" value="" style="triangle;whiteSpace=wrap;html=1;rotation=-65;strokeColor=none;fillColor=#000000;" parent="1" vertex="1">
                    <mxGeometry x="610" y="388" width="5" height="55" as="geometry"/>
                </mxCell>
                <mxCell id="1VqV4PHdZKzAxzpNPlv1-66" value="" style="curved=1;endArrow=none;html=1;rounded=0;endFill=0;strokeWidth=4;strokeColor=#000000;" parent="1" edge="1">
                    <mxGeometry width="50" height="50" relative="1" as="geometry">
                        <mxPoint x="484" y="438" as="sourcePoint"/>
                        <mxPoint x="536" y="423" as="targetPoint"/>
                        <Array as="points">
                            <mxPoint x="499" y="406"/>
                        </Array>
                    </mxGeometry>
                </mxCell>
                <mxCell id="1VqV4PHdZKzAxzpNPlv1-67" value="" style="curved=1;endArrow=none;html=1;rounded=0;endFill=0;strokeWidth=4;strokeColor=#000000;" parent="1" edge="1">
                    <mxGeometry width="50" height="50" relative="1" as="geometry">
                        <mxPoint x="584" y="483" as="sourcePoint"/>
                        <mxPoint x="563" y="434" as="targetPoint"/>
                        <Array as="points">
                            <mxPoint x="598" y="453"/>
                        </Array>
                    </mxGeometry>
                </mxCell>
                <mxCell id="1VqV4PHdZKzAxzpNPlv1-54" value="" style="endArrow=classic;html=1;rounded=0;fillColor=#f8cecc;strokeColor=#b85450;" parent="1" edge="1">
                    <mxGeometry width="50" height="50" relative="1" as="geometry">
                        <mxPoint x="635.9" y="431" as="sourcePoint"/>
                        <mxPoint x="668.9" y="360" as="targetPoint"/>
                    </mxGeometry>
                </mxCell>
                <mxCell id="1VqV4PHdZKzAxzpNPlv1-55" value="$$F_2 [N]$$" style="edgeLabel;html=1;align=center;verticalAlign=middle;resizable=0;points=[];rotation=0;labelBackgroundColor=none;fontColor=#000000;" parent="1VqV4PHdZKzAxzpNPlv1-54" vertex="1" connectable="0">
                    <mxGeometry x="0.1587" y="-3" relative="1" as="geometry">
                        <mxPoint x="16" y="4" as="offset"/>
                    </mxGeometry>
                </mxCell>
                <mxCell id="1VqV4PHdZKzAxzpNPlv1-60" value="" style="rounded=0;whiteSpace=wrap;html=1;strokeColor=none;fillColor=#000000;rotation=25;" parent="1" vertex="1">
                    <mxGeometry x="626.3" y="428" width="10" height="24.69" as="geometry"/>
                </mxCell>
            </root>
        </mxGraphModel>
    </diagram>
</mxfile>